<svg xmlns="http://www.w3.org/2000/svg" viewBox="0 0 125 125" id="server-lock">
  <rect width="54.355" height="28.581" x="41.236" y="47.134" fill="#2f4859"></rect>
  <path fill="#3a556a" d="M39.6808,29.43016h57.4656a2.27992,2.27992,0,0,1,2.27992,2.27992V46.20335a2.28,2.28,0,0,1-2.28,2.28H39.6808a2.27992,2.27992,0,0,1-2.27992-2.27992V31.71007A2.27992,2.27992,0,0,1,39.6808,29.43016Z"></path>
  <path fill="#2f4859" d="M40.75953 33.105v2.28h2.27991v-2.28zm1.89991 1.91h-1.53v-1.54h1.53zM44.24952 33.105v2.28h2.28992v-2.28zm1.90992 1.91h-1.53v-1.54h1.53zM47.74952 33.105v2.28h2.27991v-2.28zm1.90992 1.91h-1.53v-1.54h1.53zM51.24952 33.105v2.28h2.27991v-2.28zm1.90992 1.91h-1.54v-1.54h1.54zM54.74952 33.105v2.28h2.27991v-2.28zm1.89991 1.91h-1.53v-1.54h1.53zM58.23951 33.105v2.28h2.28992v-2.28zm1.90992 1.91h-1.53v-1.54h1.53zM61.73951 33.105v2.28h2.27991v-2.28zm1.90992 1.91h-1.53v-1.54h1.53zM65.23951 33.105v2.28h2.27991v-2.28zm1.90992 1.91h-1.54v-1.54h1.54zM40.75953 36.245v2.28h2.27991v-2.28zm1.89991 1.91h-1.53v-1.53h1.53zM44.24952 36.245v2.28h2.28992v-2.28zm1.90992 1.91h-1.53v-1.53h1.53zM47.74952 36.245v2.28h2.27991v-2.28zm1.90992 1.91h-1.53v-1.53h1.53zM51.24952 36.245v2.28h2.27991v-2.28zm1.90992 1.91h-1.54v-1.53h1.54zM54.74952 36.245v2.28h2.27991v-2.28zm1.89991 1.91h-1.53v-1.53h1.53zM58.23951 36.245v2.28h2.28992v-2.28zm1.90992 1.91h-1.53v-1.53h1.53zM61.73951 36.245v2.28h2.27991v-2.28zm1.90992 1.91h-1.53v-1.53h1.53zM65.23951 36.245v2.28h2.27991v-2.28zm1.90992 1.91h-1.54v-1.53h1.54zM40.75953 39.385v2.28h2.27991v-2.28zm1.89991 1.91h-1.53v-1.53h1.53zM44.24952 39.385v2.28h2.28992v-2.28zm1.90992 1.91h-1.53v-1.53h1.53zM47.74952 39.385v2.28h2.27991v-2.28zm1.90992 1.91h-1.53v-1.53h1.53zM51.24952 39.385v2.28h2.27991v-2.28zm1.90992 1.91h-1.54v-1.53h1.54zM54.74952 39.385v2.28h2.27991v-2.28zm1.89991 1.91h-1.53v-1.53h1.53zM58.23951 39.385v2.28h2.28992v-2.28zm1.90992 1.91h-1.53v-1.53h1.53zM61.73951 39.385v2.28h2.27991v-2.28zm1.90992 1.91h-1.53v-1.53h1.53zM65.23951 39.385v2.28h2.27991v-2.28zm1.90992 1.91h-1.54v-1.53h1.54zM40.75953 42.525v2.28h2.27991v-2.28zm1.89991 1.91h-1.53v-1.53h1.53zM44.24952 42.525v2.28h2.28992v-2.28zm1.90992 1.91h-1.53v-1.53h1.53zM47.74952 42.525v2.28h2.27991v-2.28zm1.90992 1.91h-1.53v-1.53h1.53zM51.24952 42.525v2.28h2.27991v-2.28zm1.90992 1.91h-1.54v-1.53h1.54zM54.74952 42.525v2.28h2.27991v-2.28zm1.89991 1.91h-1.53v-1.53h1.53zM58.23951 42.525v2.28h2.28992v-2.28zm1.90992 1.91h-1.53v-1.53h1.53zM61.73951 42.525v2.28h2.27991v-2.28zm1.90992 1.91h-1.53v-1.53h1.53zM65.23951 42.525v2.28h2.27991v-2.28zm1.90992 1.91h-1.54v-1.53h1.54z"></path>
  <path fill="#ebf0f3" d="M78.25075,34.89084a3.636,3.636,0,1,0,3.63592,3.636A3.636,3.636,0,0,0,78.25075,34.89084Z"></path>
  <path fill="#e56353" d="M78.25073,36.37212a2.1547,2.1547,0,1,0,2.15465,2.15469A2.15473,2.15473,0,0,0,78.25073,36.37212Z"></path>
  <path fill="#ebf0f3" d="M89.4299,34.89084a3.636,3.636,0,1,0,3.63592,3.636A3.636,3.636,0,0,0,89.4299,34.89084Z"></path>
  <path fill="#27a2db" d="M89.42988,36.37212a2.1547,2.1547,0,1,0,2.15465,2.15469A2.15473,2.15473,0,0,0,89.42988,36.37212Z"></path>
  <path fill="#3a556a" d="M39.6808,50.16507H97.14628a2.28,2.28,0,0,1,2.28,2.28V66.93833a2.28,2.28,0,0,1-2.28,2.28H39.6808a2.27992,2.27992,0,0,1-2.27992-2.27992V52.445A2.27992,2.27992,0,0,1,39.6808,50.16507Z"></path>
  <path fill="#2f4859" d="M40.75953 53.835v2.29h2.27991v-2.29zm1.89991 1.91h-1.53v-1.53h1.53zM44.24952 53.835v2.29h2.28992v-2.29zm1.90992 1.91h-1.53v-1.53h1.53zM47.74952 53.835v2.29h2.27991v-2.29zm1.90992 1.91h-1.53v-1.53h1.53zM51.24952 53.835v2.29h2.27991v-2.29zm1.90992 1.91h-1.54v-1.53h1.54zM54.74952 53.835v2.29h2.27991v-2.29zm1.89991 1.91h-1.53v-1.53h1.53zM58.23951 53.835v2.29h2.28992v-2.29zm1.90992 1.91h-1.53v-1.53h1.53zM61.73951 53.835v2.29h2.27991v-2.29zm1.90992 1.91h-1.53v-1.53h1.53zM65.23951 53.835v2.29h2.27991v-2.29zm1.90992 1.91h-1.54v-1.53h1.54zM40.75953 56.985v2.28h2.27991v-2.28zm1.89991 1.9h-1.53v-1.53h1.53zM44.24952 56.985v2.28h2.28992v-2.28zm1.90992 1.9h-1.53v-1.53h1.53zM47.74952 56.985v2.28h2.27991v-2.28zm1.90992 1.9h-1.53v-1.53h1.53zM51.24952 56.985v2.28h2.27991v-2.28zm1.90992 1.9h-1.54v-1.53h1.54zM54.74952 56.985v2.28h2.27991v-2.28zm1.89991 1.9h-1.53v-1.53h1.53zM58.23951 56.985v2.28h2.28992v-2.28zm1.90992 1.9h-1.53v-1.53h1.53zM61.73951 56.985v2.28h2.27991v-2.28zm1.90992 1.9h-1.53v-1.53h1.53zM65.23951 56.985v2.28h2.27991v-2.28zm1.90992 1.9h-1.54v-1.53h1.54zM40.75953 60.125v2.28h2.27991v-2.28zm1.89991 1.9h-1.53v-1.53h1.53zM44.24952 60.125v2.28h2.28992v-2.28zm1.90992 1.9h-1.53v-1.53h1.53zM47.74952 60.125v2.28h2.27991v-2.28zm1.90992 1.9h-1.53v-1.53h1.53zM51.24952 60.125v2.28h2.27991v-2.28zm1.90992 1.9h-1.54v-1.53h1.54zM54.74952 60.125v2.28h2.27991v-2.28zm1.89991 1.9h-1.53v-1.53h1.53zM58.23951 60.125v2.28h2.28992v-2.28zm1.90992 1.9h-1.53v-1.53h1.53zM61.73951 60.125v2.28h2.27991v-2.28zm1.90992 1.9h-1.53v-1.53h1.53zM65.23951 60.125v2.28h2.27991v-2.28zm1.90992 1.9h-1.54v-1.53h1.54zM40.75953 63.265v2.28h2.27991v-2.28zm1.89991 1.9h-1.53v-1.53h1.53zM44.24952 63.265v2.28h2.28992v-2.28zm1.90992 1.9h-1.53v-1.53h1.53zM47.74952 63.265v2.28h2.27991v-2.28zm1.90992 1.9h-1.53v-1.53h1.53zM51.24952 63.265v2.28h2.27991v-2.28zm1.90992 1.9h-1.54v-1.53h1.54zM54.74952 63.265v2.28h2.27991v-2.28zm1.89991 1.9h-1.53v-1.53h1.53zM58.23951 63.265v2.28h2.28992v-2.28zm1.90992 1.9h-1.53v-1.53h1.53zM61.73951 63.265v2.28h2.27991v-2.28zm1.90992 1.9h-1.53v-1.53h1.53zM65.23951 63.265v2.28h2.27991v-2.28zm1.90992 1.9h-1.54v-1.53h1.54z"></path>
  <path fill="#ebf0f3" d="M78.25075,55.62575a3.636,3.636,0,1,0,3.63592,3.636A3.636,3.636,0,0,0,78.25075,55.62575Z"></path>
  <path fill="#e56353" d="M78.25073,57.107a2.1547,2.1547,0,1,0,2.15465,2.1547A2.15474,2.15474,0,0,0,78.25073,57.107Z"></path>
  <path fill="#ebf0f3" d="M89.4299,55.62575a3.636,3.636,0,1,0,3.63592,3.636A3.636,3.636,0,0,0,89.4299,55.62575Z"></path>
  <path fill="#27a2db" d="M89.42988,57.107a2.1547,2.1547,0,1,0,2.15465,2.1547A2.15474,2.15474,0,0,0,89.42988,57.107Z"></path>
  <path fill="#3a556a" d="M39.6808,70.9H97.14628a2.28,2.28,0,0,1,2.28,2.28V87.67324a2.28,2.28,0,0,1-2.28,2.28H39.6808a2.27992,2.27992,0,0,1-2.27992-2.27992V73.1799A2.27992,2.27992,0,0,1,39.6808,70.9Z"></path>
  <path fill="#2f4859" d="M40.75953 74.575v2.28h2.27991v-2.28zm1.89991 1.9h-1.53v-1.53h1.53zM44.24952 74.575v2.28h2.28992v-2.28zm1.90992 1.9h-1.53v-1.53h1.53zM47.74952 74.575v2.28h2.27991v-2.28zm1.90992 1.9h-1.53v-1.53h1.53zM51.24952 74.575v2.28h2.27991v-2.28zm1.90992 1.9h-1.54v-1.53h1.54zM54.74952 74.575v2.28h2.27991v-2.28zm1.89991 1.9h-1.53v-1.53h1.53zM58.23951 74.575v2.28h2.28992v-2.28zm1.90992 1.9h-1.53v-1.53h1.53zM61.73951 74.575v2.28h2.27991v-2.28zm1.90992 1.9h-1.53v-1.53h1.53zM65.23951 74.575v2.28h2.27991v-2.28zm1.90992 1.9h-1.54v-1.53h1.54zM40.75953 77.715v2.28h2.27991v-2.28zm1.89991 1.91h-1.53v-1.53h1.53zM44.24952 77.715v2.28h2.28992v-2.28zm1.90992 1.91h-1.53v-1.53h1.53zM47.74952 77.715v2.28h2.27991v-2.28zm1.90992 1.91h-1.53v-1.53h1.53zM51.24952 77.715v2.28h2.27991v-2.28zm1.90992 1.91h-1.54v-1.53h1.54zM54.74952 77.715v2.28h2.27991v-2.28zm1.89991 1.91h-1.53v-1.53h1.53zM58.23951 77.715v2.28h2.28992v-2.28zm1.90992 1.91h-1.53v-1.53h1.53zM61.73951 77.715v2.28h2.27991v-2.28zm1.90992 1.91h-1.53v-1.53h1.53zM65.23951 77.715v2.28h2.27991v-2.28zm1.90992 1.91h-1.54v-1.53h1.54zM40.75953 80.855v2.28h2.27991v-2.28zm1.89991 1.91h-1.53v-1.53h1.53zM44.24952 80.855v2.28h2.28992v-2.28zm1.90992 1.91h-1.53v-1.53h1.53zM47.74952 80.855v2.28h2.27991v-2.28zm1.90992 1.91h-1.53v-1.53h1.53zM51.24952 80.855v2.28h2.27991v-2.28zm1.90992 1.91h-1.54v-1.53h1.54zM54.74952 80.855v2.28h2.27991v-2.28zm1.89991 1.91h-1.53v-1.53h1.53zM58.23951 80.855v2.28h2.28992v-2.28zm1.90992 1.91h-1.53v-1.53h1.53zM61.73951 80.855v2.28h2.27991v-2.28zm1.90992 1.91h-1.53v-1.53h1.53zM65.23951 80.855v2.28h2.27991v-2.28zm1.90992 1.91h-1.54v-1.53h1.54zM40.75953 83.995v2.28h2.27991v-2.28zm1.89991 1.91h-1.53v-1.53h1.53zM44.24952 83.995v2.28h2.28992v-2.28zm1.90992 1.91h-1.53v-1.53h1.53zM47.74952 83.995v2.28h2.27991v-2.28zm1.90992 1.91h-1.53v-1.53h1.53zM51.24952 83.995v2.28h2.27991v-2.28zm1.90992 1.91h-1.54v-1.53h1.54zM54.74952 83.995v2.28h2.27991v-2.28zm1.89991 1.91h-1.53v-1.53h1.53zM58.23951 83.995v2.28h2.28992v-2.28zm1.90992 1.91h-1.53v-1.53h1.53zM61.73951 83.995v2.28h2.27991v-2.28zm1.90992 1.91h-1.53v-1.53h1.53zM65.23951 83.995v2.28h2.27991v-2.28zm1.90992 1.91h-1.54v-1.53h1.54z"></path>
  <path fill="#ebf0f3" d="M78.25075,76.36066a3.636,3.636,0,1,0,3.63592,3.636A3.636,3.636,0,0,0,78.25075,76.36066Z"></path>
  <path fill="#e56353" d="M78.25073,77.842a2.15469,2.15469,0,1,0,2.15465,2.15469A2.15473,2.15473,0,0,0,78.25073,77.842Z"></path>
  <path fill="#ebf0f3" d="M89.4299,76.36066a3.636,3.636,0,1,0,3.63592,3.636A3.636,3.636,0,0,0,89.4299,76.36066Z"></path>
  <path fill="#27a2db" d="M89.42988,77.842a2.15469,2.15469,0,1,0,2.15465,2.15469A2.15473,2.15473,0,0,0,89.42988,77.842Z"></path>
  <path fill="#ebf0f3" d="M45.67946,65.545c-.04-.13-.08008-.26-.12-.38a7.50788,7.50788,0,0,0-.68005-1.53c-.06995-.12-.1399-.25-.22-.37a8.31234,8.31234,0,0,0-1.62-1.88c-.12-.11-.25-.22-.38-.31995-.26-.2-.54-.39-.83008-.57-.18994-.11-.38989-.22-.58985-.32a.91934.91934,0,0,0-.10009-.05,8.52524,8.52524,0,0,0-3.74-.86005,8.61241,8.61241,0,0,0-8.6,8.6v11.59H45.99952V67.865A8.49662,8.49662,0,0,0,45.67946,65.545Zm-2.8,10.79h-10.96v-8.47a5.48836,5.48836,0,0,1,5.48-5.48,5.38646,5.38646,0,0,1,3.3601,1.16,3.87586,3.87586,0,0,1,.36988.32,1.09529,1.09529,0,0,1,.1101.1,5.396,5.396,0,0,1,.91993,1.2,2.73874,2.73874,0,0,1,.2.38,5.2962,5.2962,0,0,1,.52,2.32Z"></path>
  <path fill="#44c4a1" d="M27.92616,73.67954H46.87561A2.35248,2.35248,0,0,1,49.2281,76.032V93.21736a2.35248,2.35248,0,0,1-2.35248,2.35248H27.92609a2.35241,2.35241,0,0,1-2.35241-2.35241V76.032a2.35248,2.35248,0,0,1,2.35248-2.35248Z"></path>
  <path fill="#2f4859" d="M40.14168,83.53506a2.74082,2.74082,0,1,0-3.99792,2.42211v4.15561H38.658V85.95717A2.73,2.73,0,0,0,40.14168,83.53506Z"></path>
</svg>
